<svg xmlns="http://www.w3.org/2000/svg" version="1.1" xmlns:xlink="http://www.w3.org/1999/xlink" xmlns:svgjs="http://svgjs.dev/svgjs" width="1000" height="623" viewBox="0 0 1000 623"><g transform="matrix(1,0,0,1,-0.6060461876473937,0.2522267206477409)"><svg viewBox="0 0 396 247" data-background-color="#046380" preserveAspectRatio="xMidYMid meet" height="623" width="1000" xmlns="http://www.w3.org/2000/svg" xmlns:xlink="http://www.w3.org/1999/xlink"><g id="tight-bounds" transform="matrix(1,0,0,1,0.2399943015275312,-0.09999999999999432)"><svg viewBox="0 0 395.52 247.2" height="247.2" width="395.52"><g><svg></svg></g><g><svg viewBox="0 0 395.52 247.2" height="247.2" width="395.52"><g><g><path xmlns="http://www.w3.org/2000/svg" d="M1 209.197v-9.01c4.956-0.15 8.965-0.556 12.029-1.217 3.094-0.691 5.511-1.982 7.253-3.874 1.712-1.862 2.868-4.415 3.469-7.659 0.601-3.214 0.901-7.524 0.901-12.929l0-9.223 33.112 0v4.492c0 8.71 2.703 15.167 8.109 19.372 5.406 4.205 13.741 6.307 25.004 6.307 19.672 0 34.809-5.932 45.411-17.795 3.227-3.622 5.962-7.747 8.204-12.376h35.273c-4.315 7.77-9.813 14.599-16.492 20.485-8.319 7.358-18.291 13.095-29.913 17.21-11.653 4.145-24.463 6.217-38.429 6.217zM24.652 70.44c0-5.256-0.225-9.506-0.676-12.75-0.451-3.214-1.427-5.767-2.928-7.658-1.502-1.862-3.559-3.139-6.172-3.83-2.643-0.661-6.067-1.141-10.272-1.441v-9.01h85.597c14.416 0 27.706 2.253 39.87 6.757 12.164 4.505 22.676 10.737 31.536 18.696 6.723 6.039 12.321 12.942 16.796 20.711l-35.086 0c-2.218-4.546-4.832-8.642-7.84-12.286-5.406-6.517-11.969-11.503-19.687-14.957-7.749-3.454-16.429-5.181-26.04-5.181h-28.156c-2.553 0-3.829 1.276-3.83 3.83l0 28.594-33.112 0zM364.471 172.165c-2.793 9.07-7.118 16.534-12.975 22.39-5.857 5.857-13.395 10.136-22.615 12.84-9.25 2.703-20.333 4.055-33.248 4.054-24.177 0-41.852-5.076-53.025-15.227-7.999-7.227-13.142-17.539-15.429-30.937h33.919c1.797 7.249 4.704 13.132 8.721 17.647 7.298 8.199 18.531 12.299 33.698 12.299 23.57 0 38.161-9.982 43.773-29.946l18.934 0c-0.505 2.399-1.089 4.692-1.753 6.88zM225.579 71.206c-0.15-3.964-0.375-7.298-0.676-10.002-0.3-2.703-0.721-4.926-1.261-6.667-0.511-1.712-1.141-3.169-1.892-4.37-1.352-2.102-3.304-3.529-5.857-4.28-2.553-0.751-6.457-1.126-11.713-1.126v-9.01h80.866v9.01c-6.307 0-10.962 0.345-13.966 1.036-3.003 0.661-5.331 1.967-6.982 3.919-1.051 1.201-1.907 2.658-2.568 4.37-0.691 1.742-1.216 3.995-1.577 6.758-0.39 2.793-0.661 6.217-0.811 10.272-0.114 3.08-0.185 6.68-0.212 10.799l-33.139 0c-0.027-4.106-0.098-7.676-0.212-10.709zM349.604 75.395c-0.24-4.505-0.616-8.334-1.126-11.488-0.541-3.154-1.216-5.782-2.027-7.883-0.841-2.102-1.862-3.829-3.064-5.181-2.102-2.102-4.805-3.649-8.109-4.641-3.304-0.961-7.884-1.442-13.741-1.441v-9.01h72.983v9.01c-5.556 0-9.836 0.405-12.84 1.216-3.003 0.841-5.331 2.313-6.982 4.415-1.201 1.352-2.177 3.109-2.929 5.271-0.751 2.192-1.352 4.911-1.802 8.154-0.451 3.214-0.781 7.073-0.991 11.578-0.106 1.996-0.189 4.169-0.249 6.52l-18.905 0c-0.052-2.35-0.124-4.523-0.218-6.52z" fill="#ffffff" fill-rule="nonzero" stroke="none" stroke-width="1" stroke-linecap="butt" stroke-linejoin="miter" stroke-miterlimit="10" stroke-dasharray="" stroke-dashoffset="0" font-family="none" font-weight="none" font-size="none" text-anchor="none" style="mix-blend-mode: normal" data-fill-palette-color="tertiary"></path></g></g><g transform="matrix(1,0,0,1,0,88.10798138236692)"><svg viewBox="0 0 395.52 70.98403723526617" height="70.98403723526617" width="395.52"><g><svg viewBox="0 0 395.52 70.98403723526617" height="70.98403723526617" width="395.52"><g><svg viewBox="0 0 395.52 70.98403723526617" height="70.98403723526617" width="395.52"><g><svg viewBox="0 0 395.52 70.98403723526617" height="70.98403723526617" width="395.52"><g><svg viewBox="0 0 395.52 70.98403723526617" height="70.98403723526617" width="395.52"><g><svg viewBox="0 0 395.52 42.44111045481394" height="42.44111045481394" width="395.52"><g transform="matrix(1,0,0,1,0,0)"><svg width="395.52" viewBox="1.75 -41.5 507.8599853515625 54.5" height="42.44111045481394" data-palette-color="#ffffff"><path d="M22.6 0L1.75 0 1.75-2Q3.4-2.05 4.42-2.27 5.45-2.5 6.03-3.13 6.6-3.75 6.8-4.83 7-5.9 7-7.7L7-7.7 7-30.8Q7-32.55 6.85-33.63 6.7-34.7 6.2-35.33 5.7-35.95 4.83-36.18 3.95-36.4 2.55-36.5L2.55-36.5 2.55-38.5 21.55-38.5Q26.35-38.5 30.4-37 34.45-35.5 37.4-32.85 40.35-30.2 42-26.55 43.65-22.9 43.65-18.6L43.65-18.6Q43.65-14.5 42.1-11.08 40.55-7.65 37.77-5.2 35-2.75 31.13-1.38 27.25 0 22.6 0L22.6 0ZM21.45-35.45L15.2-35.45Q14.35-35.45 14.35-34.6L14.35-34.6 14.35-8.75Q14.35-5.85 16.15-4.45 17.95-3.05 21.7-3.05L21.7-3.05Q28.25-3.05 31.78-7 35.3-10.95 35.3-18.5L35.3-18.5Q35.3-22.5 34.35-25.65 33.4-28.8 31.6-30.98 29.8-33.15 27.23-34.3 24.65-35.45 21.45-35.45L21.45-35.45ZM57.2-14.1L57.2-10.95Q57.2-9.1 57.72-7.53 58.25-5.95 59.15-4.8 60.05-3.65 61.3-3 62.55-2.35 64.05-2.35L64.05-2.35Q67.05-2.35 68.6-5.1 70.15-7.85 70.15-13.2L70.15-13.2Q70.15-18.4 68.62-21.13 67.1-23.85 64.05-23.85L64.05-23.85Q62.25-23.85 60.72-22.88 59.2-21.9 58.35-20.15L58.35-20.15Q57.2-17.75 57.2-14.1L57.2-14.1ZM57.1-41.5L57.1-23.05 57.3-23.05Q58.6-24.95 60.65-25.98 62.7-27 65.3-27L65.3-27Q67.95-27 70.22-25.93 72.5-24.85 74.17-23 75.85-21.15 76.8-18.65 77.75-16.15 77.75-13.3L77.75-13.3Q77.75-10.3 76.72-7.78 75.7-5.25 73.92-3.4 72.15-1.55 69.77-0.5 67.4 0.55 64.75 0.55L64.75 0.55Q62 0.55 59.57-0.53 57.15-1.6 55.7-3.35L55.7-3.35 51.9 0 50.2 0 50.2-29.75Q50.2-34.45 49.55-36.2L49.55-36.2Q49.4-36.55 49.2-36.8 49-37.05 48.62-37.23 48.25-37.4 47.6-37.52 46.95-37.65 45.9-37.8L45.9-37.8 45.9-39.5 57.1-41.5ZM80.5-23.75L80.5-26.5 85.9-26.5 85.9-29.3Q85.9-32 86.82-34.25 87.75-36.5 89.4-38.13 91.05-39.75 93.37-40.63 95.7-41.5 98.55-41.5L98.55-41.5Q100.25-41.5 101.67-41.18 103.1-40.85 104.15-40.3 105.2-39.75 105.77-38.95 106.35-38.15 106.35-37.25L106.35-37.25Q106.35-36.1 105.5-35.35 104.65-34.6 103.35-34.6L103.35-34.6Q102.45-34.6 101.77-35.2 101.1-35.8 99.75-37.4L99.75-37.4Q99.15-38.1 98.5-38.4 97.85-38.7 97.15-38.7L97.15-38.7Q95.15-38.7 94-36.27 92.85-33.85 92.85-29.6L92.85-29.6 92.85-26.5 101.3-26.5 101.3-23.75 92.85-23.75 92.85-8.3Q92.85-6.4 93.07-5.2 93.3-4 93.92-3.3 94.55-2.6 95.6-2.33 96.65-2.05 98.3-2L98.3-2 98.3 0 81.4 0 81.4-2Q82.9-2.05 83.8-2.27 84.7-2.5 85.15-3.13 85.6-3.75 85.75-4.88 85.9-6 85.9-7.9L85.9-7.9 85.9-23.75 80.5-23.75ZM113.14-6.15L113.19-5.9 123.39-5.9Q124.64-5.9 125.59-6.13 126.54-6.35 127.27-7 127.99-7.65 128.59-8.78 129.19-9.9 129.74-11.65L129.74-11.65 131.94-11.65 129.94 0 103.74 0 103.74-2.3Q109.69-7.4 113.49-11.13 117.29-14.85 119.47-17.78 121.64-20.7 122.47-23.18 123.29-25.65 123.29-28.3L123.29-28.3Q123.29-31.95 121.64-34.05 119.99-36.15 117.14-36.15L117.14-36.15Q115.79-36.15 114.62-35.68 113.44-35.2 112.62-34.35 111.79-33.5 111.32-32.3 110.84-31.1 110.84-29.7L110.84-29.7Q110.84-27.2 112.12-25.75 113.39-24.3 115.59-24.3L115.59-24.3Q115.34-22.85 114.22-22 113.09-21.15 111.49-21.15L111.49-21.15Q109.94-21.15 108.62-21.7 107.29-22.25 106.32-23.25 105.34-24.25 104.79-25.63 104.24-27 104.24-28.65L104.24-28.65Q104.24-30.9 105.27-32.77 106.29-34.65 108.14-36.05 109.99-37.45 112.52-38.23 115.04-39 117.99-39L117.99-39Q120.94-39 123.39-38.2 125.84-37.4 127.62-35.98 129.39-34.55 130.37-32.58 131.34-30.6 131.34-28.2L131.34-28.2Q131.34-25.2 129.97-22.35 128.59-19.5 126.17-16.8 123.74-14.1 120.42-11.45 117.09-8.8 113.14-6.15L113.14-6.15ZM137.79 0L137.04-12.75 138.99-12.75Q139.69-8 142.79-5.28 145.89-2.55 150.44-2.55L150.44-2.55Q152.29-2.55 153.84-3 155.39-3.45 156.49-4.28 157.59-5.1 158.19-6.23 158.79-7.35 158.79-8.75L158.79-8.75Q158.79-9.95 158.42-10.83 158.04-11.7 156.99-12.53 155.94-13.35 154.12-14.2 152.29-15.05 149.39-16.15L149.39-16.15Q143.54-18.4 140.74-21.38 137.94-24.35 137.94-28.4L137.94-28.4Q137.94-30.75 138.84-32.7 139.74-34.65 141.37-36.05 142.99-37.45 145.27-38.23 147.54-39 150.29-39L150.29-39Q152.84-39 155.09-38.2 157.34-37.4 159.54-35.8L159.54-35.8 160.44-38.3 161.64-38.3 162.19-27.5 160.24-27.5Q159.04-31.6 156.49-33.77 153.94-35.95 150.59-35.95L150.59-35.95Q147.49-35.95 145.57-34.43 143.64-32.9 143.64-30.5L143.64-30.5Q143.64-29.45 143.99-28.63 144.34-27.8 145.29-27.05 146.24-26.3 147.89-25.53 149.54-24.75 152.14-23.8L152.14-23.8Q155.64-22.45 158.12-21.08 160.59-19.7 162.17-18.13 163.74-16.55 164.49-14.8 165.24-13.05 165.24-10.95L165.24-10.95Q165.24-8.4 164.14-6.3 163.04-4.2 161.07-2.7 159.09-1.2 156.37-0.35 153.64 0.5 150.34 0.5L150.34 0.5Q147.34 0.5 144.94-0.33 142.54-1.15 139.99-3L139.99-3 138.99 0 137.79 0ZM191.04-39L191.04-39Q195.59-39 199.54-37.45 203.49-35.9 206.41-33.18 209.34-30.45 211.01-26.78 212.69-23.1 212.69-18.9L212.69-18.9Q212.69-13.75 210.16-9.43 207.64-5.1 203.09-2.15L203.09-2.15Q202.24-1.6 201.46-1.18 200.69-0.75 199.69-0.3 198.69 0.15 197.36 0.65 196.04 1.15 194.19 1.8L194.19 1.8Q193.09 2.2 192.31 2.5 191.54 2.8 190.94 3.08 190.34 3.35 189.86 3.63 189.39 3.9 188.94 4.2L188.94 4.2 188.94 4.4Q189.29 4.35 189.84 4.33 190.39 4.3 190.89 4.3L190.89 4.3Q193.04 4.3 194.96 4.78 196.89 5.25 198.76 5.8 200.64 6.35 202.54 6.83 204.44 7.3 206.54 7.3L206.54 7.3Q208.94 7.3 210.29 6.45 211.64 5.6 212.39 3.6L212.39 3.6 214.24 3.6Q214.34 4.25 214.39 4.8 214.44 5.35 214.44 5.75L214.44 5.75Q214.44 7.3 213.74 8.63 213.04 9.95 211.79 10.93 210.54 11.9 208.84 12.45 207.14 13 205.19 13L205.19 13Q202.39 13 199.99 12.05 197.59 11.1 195.39 9.95 193.19 8.8 191.19 7.85 189.19 6.9 187.24 6.9L187.24 6.9Q185.89 6.9 185.04 7.35 184.19 7.8 183.51 8.33 182.84 8.85 182.16 9.3 181.49 9.75 180.54 9.75L180.54 9.75Q179.69 9.75 179.19 9.35 178.69 8.95 178.69 8.35L178.69 8.35Q178.69 7.5 179.46 6.78 180.24 6.05 182.34 4.9L182.34 4.9 188.64 1.35Q184.64 1 181.19-0.7 177.74-2.4 175.21-5.1 172.69-7.8 171.24-11.33 169.79-14.85 169.79-18.85L169.79-18.85Q169.79-23.1 171.41-26.8 173.04-30.5 175.89-33.2 178.74-35.9 182.64-37.45 186.54-39 191.04-39ZM191.04-1.5L191.04-1.5Q193.99-1.5 196.39-2.73 198.79-3.95 200.46-6.2 202.14-8.45 203.06-11.65 203.99-14.85 203.99-18.75L203.99-18.75Q203.99-22.65 203.06-25.8 202.14-28.95 200.46-31.15 198.79-33.35 196.39-34.55 193.99-35.75 191.04-35.75L191.04-35.75Q188.09-35.75 185.76-34.58 183.44-33.4 181.84-31.2 180.24-29 179.36-25.85 178.49-22.7 178.49-18.75L178.49-18.75Q178.49-14.75 179.36-11.55 180.24-8.35 181.86-6.13 183.49-3.9 185.81-2.7 188.14-1.5 191.04-1.5ZM251.34-11.35L250.54 0 216.09 0 216.09-2Q217.74-2.05 218.79-2.3 219.84-2.55 220.39-3.15 220.94-3.75 221.14-4.85 221.34-5.95 221.34-7.7L221.34-7.7 221.34-30.8Q221.34-32.55 221.16-33.63 220.99-34.7 220.49-35.33 219.99-35.95 219.06-36.18 218.14-36.4 216.64-36.5L216.64-36.5 216.64-38.5 233.89-38.5 233.89-36.5Q232.19-36.45 231.16-36.2 230.14-35.95 229.59-35.3 229.04-34.65 228.86-33.5 228.69-32.35 228.69-30.45L228.69-30.45 228.69-9.5Q228.69-7.4 229.11-6.08 229.54-4.75 230.59-4.03 231.64-3.3 233.39-3.03 235.14-2.75 237.74-2.75L237.74-2.75Q240.64-2.75 242.59-3.1 244.54-3.45 245.86-4.42 247.19-5.4 247.99-7.05 248.79-8.7 249.34-11.35L249.34-11.35 251.34-11.35ZM301.78-26.1L301.78-15.5Q301.78-11.25 300.86-8.22 299.93-5.2 297.98-3.25 296.03-1.3 292.96-0.4 289.88 0.5 285.58 0.5L285.58 0.5Q277.53 0.5 273.81-2.88 270.08-6.25 270.08-13.65L270.08-13.65 270.08-27.35Q270.08-29.3 270.03-30.63 269.98-31.95 269.88-32.85 269.78-33.75 269.61-34.33 269.43-34.9 269.18-35.3L269.18-35.3Q268.73-36 267.88-36.25 267.03-36.5 265.28-36.5L265.28-36.5 265.28-38.5 283.23-38.5 283.23-36.5Q281.13-36.5 280.13-36.27 279.13-36.05 278.58-35.4L278.58-35.4Q278.23-35 278.01-34.43 277.78-33.85 277.66-32.93 277.53-32 277.48-30.65 277.43-29.3 277.43-27.35L277.43-27.35 277.43-14.25Q277.43-8.55 279.86-5.83 282.28-3.1 287.33-3.1L287.33-3.1Q297.63-3.1 297.63-14.55L297.63-14.55 297.63-26.1Q297.63-28.2 297.56-29.7 297.48-31.2 297.31-32.25 297.13-33.3 296.86-34 296.58-34.7 296.18-35.15L296.18-35.15Q295.48-35.85 294.38-36.18 293.28-36.5 291.33-36.5L291.33-36.5 291.33-38.5 307.53-38.5 307.53-36.5Q305.68-36.5 304.68-36.23 303.68-35.95 303.13-35.25L303.13-35.25Q302.73-34.8 302.48-34.08 302.23-33.35 302.08-32.27 301.93-31.2 301.86-29.7 301.78-28.2 301.78-26.1L301.78-26.1ZM317.48-26.8L317.48-23.25 317.68-23.25Q320.98-27 326.28-27L326.28-27Q329.18-27 331.6-25.98 334.03-24.95 335.8-23.13 337.58-21.3 338.55-18.78 339.53-16.25 339.53-13.25L339.53-13.25Q339.53-10.25 338.55-7.75 337.58-5.25 335.83-3.4 334.08-1.55 331.65-0.53 329.23 0.5 326.38 0.5L326.38 0.5Q321.53 0.5 318.98-2.8L318.98-2.8 318.78-2.8 318.78 4.15Q318.78 6.15 318.98 7.35 319.18 8.55 319.83 9.2 320.48 9.85 321.65 10.1 322.83 10.35 324.78 10.4L324.78 10.4 324.78 12.5 307.53 12.5 307.53 10.4Q308.88 10.35 309.73 10.1 310.58 9.85 311.05 9.2 311.53 8.55 311.7 7.43 311.88 6.3 311.88 4.5L311.88 4.5 311.88-14.1Q311.88-16.4 311.78-18.48 311.68-20.55 311.53-21.4L311.53-21.4Q311.28-22.55 310.4-23 309.53-23.45 307.43-23.45L307.43-23.45 307.43-25.4 317.48-26.8ZM325.98-24.15L325.98-24.15Q324.38-24.15 322.93-23.45 321.48-22.75 320.63-21.6L320.63-21.6Q319.78-20.45 319.33-18.73 318.88-17 318.88-15L318.88-15 318.88-11.6Q318.88-8.05 320.63-5.55L320.63-5.55Q322.53-2.8 325.98-2.8L325.98-2.8Q329.03-2.8 330.5-5.33 331.98-7.85 331.98-13.15L331.98-13.15Q331.98-24.15 325.98-24.15ZM353.78-41.5L353.78-8.2Q353.78-6.2 353.93-5 354.08-3.8 354.53-3.15 354.98-2.5 355.83-2.27 356.68-2.05 358.13-2L358.13-2 358.13 0 342.38 0 342.38-2Q343.78-2.05 344.65-2.33 345.53-2.6 346-3.23 346.48-3.85 346.65-4.98 346.83-6.1 346.83-7.85L346.83-7.85 346.83-28.5Q346.83-31.4 346.73-33.27 346.63-35.15 346.48-35.85L346.48-35.85Q346.23-37.1 345.35-37.5 344.48-37.9 342.18-37.9L342.18-37.9 342.18-39.6 353.78-41.5ZM375.57-27L375.57-27Q378.57-27 381.25-25.98 383.92-24.95 385.95-23.15 387.97-21.35 389.15-18.88 390.32-16.4 390.32-13.45L390.32-13.45Q390.32-10.4 389.15-7.85 387.97-5.3 385.95-3.45 383.92-1.6 381.25-0.55 378.57 0.5 375.57 0.5L375.57 0.5Q372.62 0.5 369.97-0.53 367.32-1.55 365.32-3.4 363.32-5.25 362.17-7.83 361.02-10.4 361.02-13.45L361.02-13.45Q361.02-16.4 362.17-18.9 363.32-21.4 365.32-23.2 367.32-25 369.97-26 372.62-27 375.57-27ZM375.57-24.1L375.57-24.1Q374.07-24.1 372.82-23.33 371.57-22.55 370.7-21.15 369.82-19.75 369.35-17.78 368.87-15.8 368.87-13.4L368.87-13.4Q368.87-10.9 369.35-8.9 369.82-6.9 370.7-5.5 371.57-4.1 372.8-3.33 374.02-2.55 375.57-2.55L375.57-2.55Q377.12-2.55 378.4-3.33 379.67-4.1 380.57-5.53 381.47-6.95 381.97-8.95 382.47-10.95 382.47-13.4L382.47-13.4Q382.47-15.8 381.97-17.75 381.47-19.7 380.57-21.13 379.67-22.55 378.4-23.33 377.12-24.1 375.57-24.1ZM409.37-9.5L409.37-14.25Q405.17-12.35 403.05-10.73 400.92-9.1 400.92-7.35L400.92-7.35Q400.92-5.9 401.72-5.05 402.52-4.2 403.72-4.2L403.72-4.2Q404.92-4.2 405.97-4.63 407.02-5.05 407.77-5.75 408.52-6.45 408.95-7.43 409.37-8.4 409.37-9.5L409.37-9.5ZM402.32-13.85L409.37-16.9 409.37-19Q409.37-21.9 408.35-23.23 407.32-24.55 405.17-24.55L405.17-24.55Q403.72-24.55 402.97-23.78 402.22-23 401.57-21.2L401.57-21.2Q401.12-19.95 400.3-19.25 399.47-18.55 398.02-18.55L398.02-18.55Q396.62-18.55 395.87-19.4 395.12-20.25 395.12-21.8L395.12-21.8Q395.12-24.2 397.75-25.6 400.37-27 405.67-27L405.67-27Q411.27-27 413.67-24.98 416.07-22.95 416.07-18.2L416.07-18.2 416.07-7.25Q416.07-3 417.77-3L417.77-3Q418.72-3 419.52-3.65L419.52-3.65 420.27-2.2Q419.57-0.95 418.1-0.23 416.62 0.5 414.77 0.5L414.77 0.5Q412.47 0.5 411.27-0.9 410.07-2.3 410.07-4.85L410.07-4.85 409.82-4.85Q408.37-2.25 406.07-0.9 403.77 0.45 400.82 0.45L400.82 0.45Q397.67 0.45 395.77-1.33 393.87-3.1 393.87-5.95L393.87-5.95Q393.87-8.15 395.82-10.08 397.77-12 402.32-13.85L402.32-13.85ZM444.92 0.5L444.92-3.2 444.72-3.2Q441.27 0.5 435.77 0.5L435.77 0.5Q432.92 0.5 430.54-0.5 428.17-1.5 426.44-3.3 424.72-5.1 423.77-7.58 422.82-10.05 422.82-13.05L422.82-13.05Q422.82-16.05 423.79-18.6 424.77-21.15 426.44-23.03 428.12-24.9 430.44-25.95 432.77-27 435.47-27L435.47-27Q437.97-27 439.89-26.25 441.82-25.5 443.27-23.7L443.27-23.7 443.47-23.7 443.47-27.95Q443.47-30.9 443.39-33.02 443.32-35.15 443.17-35.8L443.17-35.8Q442.92-36.85 441.64-37.33 440.37-37.8 437.72-37.8L437.72-37.8 437.72-39.5 450.37-41.5 450.37-12.9Q450.37-9.15 450.44-7.13 450.52-5.1 450.72-4.05L450.72-4.05Q450.82-3.4 451.02-3 451.22-2.6 451.62-2.38 452.02-2.15 452.69-2.08 453.37-2 454.42-2L454.42-2 454.42-0.05 444.92 0.5ZM443.37-12.4L443.37-14.35Q443.37-16.25 442.97-17.88 442.57-19.5 441.77-20.75L441.77-20.75Q440.87-22.2 439.47-22.95 438.07-23.7 436.47-23.7L436.47-23.7Q433.52-23.7 431.97-21 430.42-18.3 430.42-13.15L430.42-13.15Q430.42-7.95 431.97-5.15 433.52-2.35 436.42-2.35L436.42-2.35Q438.07-2.35 439.57-3.2 441.07-4.05 442.02-5.5L442.02-5.5Q442.72-6.6 443.04-8.22 443.37-9.85 443.37-12.4L443.37-12.4ZM481.17-6.4L482.57-4.65Q478.02 0.5 471.22 0.5L471.22 0.5Q468.12 0.5 465.59-0.48 463.07-1.45 461.27-3.23 459.47-5 458.47-7.45 457.47-9.9 457.47-12.9L457.47-12.9Q457.47-16 458.52-18.57 459.57-21.15 461.49-23.03 463.42-24.9 466.04-25.95 468.67-27 471.82-27L471.82-27Q477.12-27 480.07-24.15 483.02-21.3 483.02-16.15L483.02-16.15Q483.02-15.35 482.77-15.18 482.52-15 481.37-15L481.37-15 465.27-15Q465.07-14.55 465.07-13.35L465.07-13.35Q465.07-8.45 467.19-5.6 469.32-2.75 472.97-2.75L472.97-2.75Q475.07-2.75 477.14-3.7 479.22-4.65 481.17-6.4L481.17-6.4ZM465.62-17.8L472.87-17.8Q474.87-17.8 475.44-18.03 476.02-18.25 476.02-19.1L476.02-19.1Q476.02-21.3 474.77-22.7 473.52-24.1 471.62-24.1L471.62-24.1Q469.47-24.1 467.79-22.33 466.12-20.55 465.62-17.8L465.62-17.8ZM497.71-10.15L497.71-7.75Q497.71-5.8 497.89-4.67 498.06-3.55 498.61-2.95 499.16-2.35 500.21-2.18 501.26-2 503.01-2L503.01-2 503.01 0 486.31 0 486.31-2Q487.81-2.1 488.71-2.3 489.61-2.5 490.06-3.1 490.51-3.7 490.64-4.83 490.76-5.95 490.76-7.85L490.76-7.85 490.76-13.95Q490.76-17.05 490.61-18.9 490.46-20.75 489.96-21.75 489.46-22.75 488.54-23.08 487.61-23.4 486.11-23.4L486.11-23.4 486.11-25.15 496.11-27 496.91-21.25 497.11-21.25Q498.46-23.9 500.66-25.45 502.86-27 505.31-27L505.31-27Q507.21-27 508.41-26.05 509.61-25.1 509.61-23.65L509.61-23.65Q509.61-22.05 508.69-20.95 507.76-19.85 506.16-19.85L506.16-19.85Q505.41-19.85 504.81-20.15 504.21-20.45 503.74-20.83 503.26-21.2 502.79-21.53 502.31-21.85 501.81-21.85L501.81-21.85Q500.86-21.85 500.01-20.6 499.16-19.35 498.61-17.25L498.61-17.25Q498.21-15.75 497.96-13.88 497.71-12 497.71-10.15L497.71-10.15Z" opacity="1" transform="matrix(1,0,0,1,0,0)" fill="#ffffff" class="undefined-text-0" data-fill-palette-color="primary" id="text-0"></path></svg></g></svg></g><g transform="matrix(1,0,0,1,0,48.63428705682221)"><svg viewBox="0 0 395.52 22.34975017844397" height="22.34975017844397" width="395.52"><g transform="matrix(1,0,0,1,0,0)"><svg width="395.52" viewBox="1.350000023841858 -36.5 840.52001953125 47.5" height="22.34975017844397" data-palette-color="#ffffff"><path d="M23.35 0L21.1 0Q18.45 0 16.5-1.13 14.55-2.25 13.5-4.25 12.45-6.25 12.45-8.8L12.45-8.8 12.45-31.8 1.35-31.8 1.35-35 27.15-35 27.15-31.8 16.05-31.8 16.05-8.3Q16.05-6.1 17.43-4.65 18.8-3.2 21.15-3.2L21.15-3.2 23.35-3.2 23.35 0ZM33.35 0L29.85 0 29.85-36.5 33.35-36.5 33.35-21.45Q34.85-23.8 37.27-24.98 39.7-26.15 42.4-26.15L42.4-26.15Q45.6-26.15 48.17-24.78 50.75-23.4 52.25-20.88 53.75-18.35 53.75-14.85L53.75-14.85 53.7 0 50.25 0 50.25-14.7Q50.25-17.35 49.02-19.23 47.8-21.1 45.87-22.1 43.95-23.1 41.75-23.1L41.75-23.1Q39.65-23.1 37.7-22.13 35.75-21.15 34.55-19.3 33.35-17.45 33.35-14.8L33.35-14.8 33.35 0ZM80.64 0L74.39 0Q70.3 0 67.07-1.53 63.84-3.05 61.97-5.9 60.09-8.75 60.09-12.75L60.09-12.75Q60.09-16.45 61.59-19.48 63.09-22.5 65.82-24.3 68.55-26.1 72.19-26.1L72.19-26.1Q75.94-26.1 78.55-24.45 81.14-22.8 82.5-20 83.84-17.2 83.84-13.7L83.84-13.7Q83.84-13.2 83.8-12.6 83.75-12 83.64-11.55L83.64-11.55 63.8-11.55Q63.95-8.75 65.39-6.85 66.84-4.95 69.17-4 71.5-3.05 74.19-3.05L74.19-3.05 80.64-3.05 80.64 0ZM63.8-14.05L63.8-14.05 80.3-14.05Q80.3-15.05 80.09-16.28 79.89-17.5 79.37-18.7 78.84-19.9 77.92-20.9 77-21.9 75.57-22.53 74.14-23.15 72.09-23.15L72.09-23.15Q70.19-23.15 68.64-22.35 67.09-21.55 66.05-20.23 65-18.9 64.42-17.3 63.84-15.7 63.8-14.05ZM108.24 0L104.79 0 104.79-22.45 100.29-22.45 100.29-25.5 104.79-25.5 104.79-29.25Q104.79-32.65 106.72-34.58 108.64-36.5 112.04-36.5L112.04-36.5 117.84-36.5 117.84-33.45 112.69-33.45Q110.54-33.45 109.39-32.25 108.24-31.05 108.24-28.85L108.24-28.85 108.24-25.5 116.89-25.5 116.89-22.45 108.24-22.45 108.24 0ZM130.44 0.65L130.44 0.65Q126.59 0.65 123.84-1.15 121.09-2.95 119.64-5.98 118.19-9 118.19-12.75L118.19-12.75Q118.19-16.55 119.79-19.58 121.39-22.6 124.36-24.35 127.34-26.1 131.44-26.1L131.44-26.1Q135.39-26.1 138.26-24.35 141.14-22.6 142.71-19.65 144.29-16.7 144.29-13L144.29-13 144.29 0 140.84 0 140.84-5.7 140.69-5.7Q139.99-4.2 138.59-2.73 137.19-1.25 135.16-0.3 133.14 0.65 130.44 0.65ZM131.19-2.35L131.19-2.35Q133.99-2.35 136.14-3.73 138.29-5.1 139.54-7.48 140.79-9.85 140.74-12.85L140.74-12.85Q140.74-15.8 139.59-18.1 138.44-20.4 136.34-21.75 134.24-23.1 131.34-23.1L131.34-23.1Q128.34-23.1 126.19-21.73 124.04-20.35 122.89-17.98 121.74-15.6 121.74-12.6L121.74-12.6Q121.74-9.8 122.84-7.45 123.94-5.1 126.06-3.73 128.19-2.35 131.19-2.35ZM164.03 0L151.44 0 151.44-3.05 163.44-3.05Q164.98-3.05 166.03-3.7 167.08-4.35 167.66-5.4 168.23-6.45 168.23-7.55L168.23-7.55Q168.23-8.65 167.73-9.58 167.23-10.5 166.28-11.1 165.33-11.7 163.88-11.7L163.88-11.7 158.53-11.7Q156.08-11.7 154.31-12.53 152.53-13.35 151.61-14.9 150.69-16.45 150.69-18.5L150.69-18.5Q150.69-20.35 151.58-21.95 152.48-23.55 154.13-24.53 155.78-25.5 157.98-25.5L157.98-25.5 169.53-25.5 169.53-22.45 158.33-22.45Q156.38-22.45 155.28-21.28 154.19-20.1 154.19-18.6L154.19-18.6Q154.19-17.15 155.28-16 156.38-14.85 158.58-14.85L158.58-14.85 163.58-14.85Q166.28-14.85 168.11-13.95 169.94-13.05 170.86-11.45 171.78-9.85 171.78-7.7L171.78-7.7Q171.78-5.75 170.78-3.98 169.78-2.2 168.06-1.1 166.33 0 164.03 0L164.03 0ZM191.58 0L185.98 0Q182.58 0 180.66-1.95 178.73-3.9 178.73-7.25L178.73-7.25 178.73-31.9 182.23-31.9 182.23-7.65Q182.23-5.45 183.36-4.25 184.48-3.05 186.68-3.05L186.68-3.05 191.58-3.05 191.58 0ZM191.68-22.45L174.28-22.45 174.28-25.5 191.68-25.5 191.68-22.45ZM222.28 0.65L222.28 0.65Q219.08 0.65 216.43-0.73 213.78-2.1 212.2-4.65 210.63-7.2 210.63-10.65L210.63-10.65 210.63-25.5 214.13-25.5 214.13-10.8Q214.13-8.15 215.3-6.25 216.48-4.35 218.33-3.38 220.18-2.4 222.28-2.4L222.28-2.4Q224.43-2.4 226.3-3.4 228.18-4.4 229.33-6.28 230.48-8.15 230.48-10.8L230.48-10.8 230.48-25.5 233.98-25.5 233.98-10.65Q233.98-7.2 232.4-4.65 230.83-2.1 228.2-0.73 225.58 0.65 222.28 0.65ZM254.48-26.15L254.48-26.15Q250.98-26.15 248.03-24.6 245.08-23.05 243.33-20.05 241.58-17.05 241.58-12.8L241.58-12.8 241.58 11 245.08 11 245.08-5.25 245.18-5.25Q246.03-3.55 247.53-2.23 249.03-0.9 250.93-0.15 252.83 0.6 254.93 0.6L254.93 0.6Q258.38 0.6 261.2-1 264.03-2.6 265.73-5.53 267.43-8.45 267.43-12.55L267.43-12.55Q267.43-15.75 266.43-18.28 265.43-20.8 263.65-22.55 261.88-24.3 259.53-25.23 257.18-26.15 254.48-26.15ZM254.43-23.1L254.43-23.1Q256.98-23.1 259.13-21.88 261.28-20.65 262.58-18.32 263.88-16 263.88-12.75L263.88-12.75Q263.88-9.6 262.58-7.28 261.28-4.95 259.15-3.7 257.03-2.45 254.53-2.45L254.53-2.45Q252.03-2.45 249.88-3.68 247.73-4.9 246.43-7.2 245.13-9.5 245.13-12.8L245.13-12.8Q245.13-16.1 246.4-18.4 247.68-20.7 249.8-21.9 251.93-23.1 254.43-23.1ZM277.27 0L273.77 0 273.77-36.5 277.27-36.5 277.27 0ZM296.87 0.65L296.87 0.65Q293.02 0.65 290.02-1.13 287.02-2.9 285.32-5.95 283.62-9 283.62-12.75L283.62-12.75Q283.62-16.5 285.32-19.55 287.02-22.6 290.02-24.38 293.02-26.15 296.87-26.15L296.87-26.15Q300.72-26.15 303.69-24.38 306.67-22.6 308.39-19.55 310.12-16.5 310.12-12.75L310.12-12.75Q310.12-9 308.39-5.95 306.67-2.9 303.69-1.13 300.72 0.65 296.87 0.65ZM296.87-2.4L296.87-2.4Q299.72-2.4 301.92-3.78 304.12-5.15 305.35-7.5 306.57-9.85 306.57-12.75L306.57-12.75Q306.57-15.65 305.35-18 304.12-20.35 301.92-21.73 299.72-23.1 296.87-23.1L296.87-23.1Q293.97-23.1 291.8-21.73 289.62-20.35 288.39-18 287.17-15.65 287.17-12.75L287.17-12.75Q287.17-9.85 288.39-7.5 289.62-5.15 291.8-3.78 293.97-2.4 296.87-2.4ZM327.37 0.65L327.37 0.65Q323.52 0.65 320.77-1.15 318.02-2.95 316.57-5.98 315.12-9 315.12-12.75L315.12-12.75Q315.12-16.55 316.72-19.58 318.32-22.6 321.29-24.35 324.27-26.1 328.37-26.1L328.37-26.1Q332.32-26.1 335.19-24.35 338.07-22.6 339.64-19.65 341.22-16.7 341.22-13L341.22-13 341.22 0 337.77 0 337.77-5.7 337.62-5.7Q336.92-4.2 335.52-2.73 334.12-1.25 332.09-0.3 330.07 0.65 327.37 0.65ZM328.12-2.35L328.12-2.35Q330.92-2.35 333.07-3.73 335.22-5.1 336.47-7.48 337.72-9.85 337.67-12.85L337.67-12.85Q337.67-15.8 336.52-18.1 335.37-20.4 333.27-21.75 331.17-23.1 328.27-23.1L328.27-23.1Q325.27-23.1 323.12-21.73 320.97-20.35 319.82-17.98 318.67-15.6 318.67-12.6L318.67-12.6Q318.67-9.8 319.77-7.45 320.87-5.1 322.99-3.73 325.12-2.35 328.12-2.35ZM360.51 0.65L360.51 0.65Q364.01 0.65 366.96-0.9 369.92-2.45 371.67-5.45 373.42-8.45 373.42-12.7L373.42-12.7 373.42-36.5 369.92-36.5 369.92-20.25 369.81-20.25Q368.96-21.95 367.46-23.28 365.96-24.6 364.06-25.35 362.17-26.1 360.06-26.1L360.06-26.1Q356.62-26.1 353.79-24.5 350.96-22.9 349.26-19.98 347.56-17.05 347.56-12.95L347.56-12.95Q347.56-9.75 348.56-7.23 349.56-4.7 351.34-2.95 353.12-1.2 355.46-0.28 357.81 0.65 360.51 0.65ZM360.56-2.4L360.56-2.4Q358.01-2.4 355.87-3.63 353.71-4.85 352.42-7.18 351.12-9.5 351.12-12.75L351.12-12.75Q351.12-15.9 352.42-18.23 353.71-20.55 355.84-21.8 357.96-23.05 360.46-23.05L360.46-23.05Q362.96-23.05 365.12-21.83 367.26-20.6 368.56-18.3 369.87-16 369.87-12.7L369.87-12.7Q369.87-9.4 368.59-7.1 367.31-4.8 365.19-3.6 363.06-2.4 360.56-2.4ZM405.86 0.65L405.86 0.65Q409.36 0.65 412.31-0.9 415.26-2.45 417.01-5.45 418.76-8.45 418.76-12.7L418.76-12.7 418.76-36.5 415.26-36.5 415.26-20.25 415.16-20.25Q414.31-21.95 412.81-23.28 411.31-24.6 409.41-25.35 407.51-26.1 405.41-26.1L405.41-26.1Q401.96-26.1 399.14-24.5 396.31-22.9 394.61-19.98 392.91-17.05 392.91-12.95L392.91-12.95Q392.91-9.75 393.91-7.23 394.91-4.7 396.69-2.95 398.46-1.2 400.81-0.28 403.16 0.65 405.86 0.65ZM405.91-2.4L405.91-2.4Q403.36-2.4 401.21-3.63 399.06-4.85 397.76-7.18 396.46-9.5 396.46-12.75L396.46-12.75Q396.46-15.9 397.76-18.23 399.06-20.55 401.19-21.8 403.31-23.05 405.81-23.05L405.81-23.05Q408.31-23.05 410.46-21.83 412.61-20.6 413.91-18.3 415.21-16 415.21-12.7L415.21-12.7Q415.21-9.4 413.94-7.1 412.66-4.8 410.54-3.6 408.41-2.4 405.91-2.4ZM437.26 0.65L437.26 0.65Q433.41 0.65 430.66-1.15 427.91-2.95 426.46-5.98 425.01-9 425.01-12.75L425.01-12.75Q425.01-16.55 426.61-19.58 428.21-22.6 431.18-24.35 434.16-26.1 438.26-26.1L438.26-26.1Q442.21-26.1 445.08-24.35 447.96-22.6 449.53-19.65 451.11-16.7 451.11-13L451.11-13 451.11 0 447.66 0 447.66-5.7 447.51-5.7Q446.81-4.2 445.41-2.73 444.01-1.25 441.98-0.3 439.96 0.65 437.26 0.65ZM438.01-2.35L438.01-2.35Q440.81-2.35 442.96-3.73 445.11-5.1 446.36-7.48 447.61-9.85 447.56-12.85L447.56-12.85Q447.56-15.8 446.41-18.1 445.26-20.4 443.16-21.75 441.06-23.1 438.16-23.1L438.16-23.1Q435.16-23.1 433.01-21.73 430.86-20.35 429.71-17.98 428.56-15.6 428.56-12.6L428.56-12.6Q428.56-9.8 429.66-7.45 430.76-5.1 432.88-3.73 435.01-2.35 438.01-2.35ZM473.06 0L467.46 0Q464.06 0 462.13-1.95 460.21-3.9 460.21-7.25L460.21-7.25 460.21-31.9 463.71-31.9 463.71-7.65Q463.71-5.45 464.83-4.25 465.96-3.05 468.16-3.05L468.16-3.05 473.06-3.05 473.06 0ZM473.16-22.45L455.76-22.45 455.76-25.5 473.16-25.5 473.16-22.45ZM489.05 0.65L489.05 0.65Q485.2 0.65 482.45-1.15 479.7-2.95 478.25-5.98 476.8-9 476.8-12.75L476.8-12.75Q476.8-16.55 478.4-19.58 480-22.6 482.98-24.35 485.95-26.1 490.05-26.1L490.05-26.1Q494-26.1 496.88-24.35 499.75-22.6 501.33-19.65 502.9-16.7 502.9-13L502.9-13 502.9 0 499.45 0 499.45-5.7 499.3-5.7Q498.6-4.2 497.2-2.73 495.8-1.25 493.78-0.3 491.75 0.65 489.05 0.65ZM489.8-2.35L489.8-2.35Q492.6-2.35 494.75-3.73 496.9-5.1 498.15-7.48 499.4-9.85 499.35-12.85L499.35-12.85Q499.35-15.8 498.2-18.1 497.05-20.4 494.95-21.75 492.85-23.1 489.95-23.1L489.95-23.1Q486.95-23.1 484.8-21.73 482.65-20.35 481.5-17.98 480.35-15.6 480.35-12.6L480.35-12.6Q480.35-9.8 481.45-7.45 482.55-5.1 484.68-3.73 486.8-2.35 489.8-2.35ZM527.3 0L523.85 0 523.85-15.4Q523.85-18.35 525.17-20.78 526.5-23.2 528.95-24.65 531.4-26.1 534.8-26.1L534.8-26.1Q536.55-26.1 538.37-25.58 540.2-25.05 541.77-23.78 543.35-22.5 544.25-20.25L544.25-20.25 544.3-20.25Q545.2-22.5 546.8-23.78 548.4-25.05 550.25-25.58 552.1-26.1 553.8-26.1L553.8-26.1Q557.25-26.1 559.7-24.65 562.15-23.2 563.45-20.78 564.75-18.35 564.75-15.4L564.75-15.4 564.75 0 561.3 0 561.3-15.4Q561.3-17.65 560.3-19.35 559.3-21.05 557.62-22.08 555.95-23.1 553.8-23.1L553.8-23.1Q551.6-23.1 549.85-22.08 548.1-21.05 547.07-19.3 546.05-17.55 546.05-15.4L546.05-15.4 546.05 0 542.55 0 542.55-15.4Q542.55-17.55 541.5-19.3 540.45-21.05 538.72-22.08 537-23.1 534.8-23.1L534.8-23.1Q532.7-23.1 530.97-22.08 529.25-21.05 528.27-19.35 527.3-17.65 527.3-15.4L527.3-15.4 527.3 0ZM583.34 0.65L583.34 0.65Q579.49 0.65 576.74-1.15 573.99-2.95 572.54-5.98 571.09-9 571.09-12.75L571.09-12.75Q571.09-16.55 572.69-19.58 574.29-22.6 577.27-24.35 580.24-26.1 584.34-26.1L584.34-26.1Q588.29-26.1 591.17-24.35 594.04-22.6 595.62-19.65 597.19-16.7 597.19-13L597.19-13 597.19 0 593.74 0 593.74-5.7 593.59-5.7Q592.89-4.2 591.49-2.73 590.09-1.25 588.07-0.3 586.04 0.65 583.34 0.65ZM584.09-2.35L584.09-2.35Q586.89-2.35 589.04-3.73 591.19-5.1 592.44-7.48 593.69-9.85 593.64-12.85L593.64-12.85Q593.64-15.8 592.49-18.1 591.34-20.4 589.24-21.75 587.14-23.1 584.24-23.1L584.24-23.1Q581.24-23.1 579.09-21.73 576.94-20.35 575.79-17.98 574.64-15.6 574.64-12.6L574.64-12.6Q574.64-9.8 575.74-7.45 576.84-5.1 578.97-3.73 581.09-2.35 584.09-2.35ZM618.34 10.15L614.84 10.15 614.84 0.5Q612.04 0.15 609.79-1.28 607.54-2.7 606.22-5.1 604.89-7.5 604.89-10.65L604.89-10.65 604.89-25.5 608.39-25.5 608.39-10.8Q608.39-8.15 609.57-6.25 610.74-4.35 612.59-3.38 614.44-2.4 616.54-2.4L616.54-2.4Q618.69-2.4 620.57-3.4 622.44-4.4 623.62-6.28 624.79-8.15 624.79-10.8L624.79-10.8 624.79-25.5 628.24-25.5 628.24-10.65Q628.24-7.45 626.92-5.08 625.59-2.7 623.34-1.28 621.09 0.15 618.34 0.45L618.34 0.45 618.34 10.15ZM661.99-26.15L661.99-26.15Q658.49-26.15 655.54-24.6 652.59-23.05 650.84-20.05 649.09-17.05 649.09-12.8L649.09-12.8 649.09 11 652.59 11 652.59-5.25 652.69-5.25Q653.54-3.55 655.04-2.23 656.54-0.9 658.44-0.15 660.34 0.6 662.44 0.6L662.44 0.6Q665.89 0.6 668.71-1 671.54-2.6 673.24-5.53 674.94-8.45 674.94-12.55L674.94-12.55Q674.94-15.75 673.94-18.28 672.94-20.8 671.16-22.55 669.39-24.3 667.04-25.23 664.69-26.15 661.99-26.15ZM661.94-23.1L661.94-23.1Q664.49-23.1 666.64-21.88 668.79-20.65 670.09-18.32 671.39-16 671.39-12.75L671.39-12.75Q671.39-9.6 670.09-7.28 668.79-4.95 666.66-3.7 664.54-2.45 662.04-2.45L662.04-2.45Q659.54-2.45 657.39-3.68 655.24-4.9 653.94-7.2 652.64-9.5 652.64-12.8L652.64-12.8Q652.64-16.1 653.91-18.4 655.19-20.7 657.31-21.9 659.44-23.1 661.94-23.1ZM693.18 0.65L693.18 0.65Q689.33 0.65 686.33-1.13 683.33-2.9 681.63-5.95 679.93-9 679.93-12.75L679.93-12.75Q679.93-16.5 681.63-19.55 683.33-22.6 686.33-24.38 689.33-26.15 693.18-26.15L693.18-26.15Q697.03-26.15 700.01-24.38 702.98-22.6 704.71-19.55 706.43-16.5 706.43-12.75L706.43-12.75Q706.43-9 704.71-5.95 702.98-2.9 700.01-1.13 697.03 0.65 693.18 0.65ZM693.18-2.4L693.18-2.4Q696.03-2.4 698.23-3.78 700.43-5.15 701.66-7.5 702.88-9.85 702.88-12.75L702.88-12.75Q702.88-15.65 701.66-18 700.43-20.35 698.23-21.73 696.03-23.1 693.18-23.1L693.18-23.1Q690.28-23.1 688.11-21.73 685.93-20.35 684.71-18 683.48-15.65 683.48-12.75L683.48-12.75Q683.48-9.85 684.71-7.5 685.93-5.15 688.11-3.78 690.28-2.4 693.18-2.4ZM724.83 0L712.23 0 712.23-3.05 724.23-3.05Q725.78-3.05 726.83-3.7 727.88-4.35 728.46-5.4 729.03-6.45 729.03-7.55L729.03-7.55Q729.03-8.65 728.53-9.58 728.03-10.5 727.08-11.1 726.13-11.7 724.68-11.7L724.68-11.7 719.33-11.7Q716.88-11.7 715.11-12.53 713.33-13.35 712.41-14.9 711.48-16.45 711.48-18.5L711.48-18.5Q711.48-20.35 712.38-21.95 713.28-23.55 714.93-24.53 716.58-25.5 718.78-25.5L718.78-25.5 730.33-25.5 730.33-22.45 719.13-22.45Q717.18-22.45 716.08-21.28 714.98-20.1 714.98-18.6L714.98-18.6Q714.98-17.15 716.08-16 717.18-14.85 719.38-14.85L719.38-14.85 724.38-14.85Q727.08-14.85 728.91-13.95 730.73-13.05 731.66-11.45 732.58-9.85 732.58-7.7L732.58-7.7Q732.58-5.75 731.58-3.98 730.58-2.2 728.86-1.1 727.13 0 724.83 0L724.83 0ZM750.93 0L738.33 0 738.33-3.05 750.33-3.05Q751.88-3.05 752.93-3.7 753.98-4.35 754.55-5.4 755.13-6.45 755.13-7.55L755.13-7.55Q755.13-8.65 754.63-9.58 754.13-10.5 753.18-11.1 752.23-11.7 750.78-11.7L750.78-11.7 745.43-11.7Q742.98-11.7 741.2-12.53 739.43-13.35 738.5-14.9 737.58-16.45 737.58-18.5L737.58-18.5Q737.58-20.35 738.48-21.95 739.38-23.55 741.03-24.53 742.68-25.5 744.88-25.5L744.88-25.5 756.43-25.5 756.43-22.45 745.23-22.45Q743.28-22.45 742.18-21.28 741.08-20.1 741.08-18.6L741.08-18.6Q741.08-17.15 742.18-16 743.28-14.85 745.48-14.85L745.48-14.85 750.48-14.85Q753.18-14.85 755-13.95 756.83-13.05 757.75-11.45 758.68-9.85 758.68-7.7L758.68-7.7Q758.68-5.75 757.68-3.98 756.68-2.2 754.95-1.1 753.23 0 750.93 0L750.93 0ZM768.48 0L764.98 0 764.98-25.5 768.48-25.5 768.48 0ZM766.73-30.1L766.73-30.1Q765.73-30.1 764.98-30.85 764.23-31.6 764.23-32.6L764.23-32.6Q764.23-33.65 764.98-34.38 765.73-35.1 766.73-35.1L766.73-35.1Q767.78-35.1 768.5-34.35 769.23-33.6 769.23-32.6L769.23-32.6Q769.23-31.6 768.5-30.85 767.78-30.1 766.73-30.1ZM788.97 0.65L788.97 0.65Q785.47 0.65 782.52-0.9 779.57-2.45 777.82-5.45 776.07-8.45 776.07-12.7L776.07-12.7 776.07-36.5 779.57-36.5 779.57-20.25 779.67-20.25Q780.52-21.95 782.02-23.28 783.52-24.6 785.42-25.35 787.32-26.1 789.42-26.1L789.42-26.1Q792.87-26.1 795.7-24.5 798.52-22.9 800.22-19.98 801.92-17.05 801.92-12.95L801.92-12.95Q801.92-9.75 800.92-7.23 799.92-4.7 798.15-2.95 796.37-1.2 794.02-0.28 791.67 0.65 788.97 0.65ZM788.92-2.4L788.92-2.4Q791.47-2.4 793.62-3.63 795.77-4.85 797.07-7.18 798.37-9.5 798.37-12.75L798.37-12.75Q798.37-15.9 797.07-18.23 795.77-20.55 793.65-21.8 791.52-23.05 789.02-23.05L789.02-23.05Q786.52-23.05 784.37-21.83 782.22-20.6 780.92-18.3 779.62-16 779.62-12.7L779.62-12.7Q779.62-9.4 780.9-7.1 782.17-4.8 784.3-3.6 786.42-2.4 788.92-2.4ZM811.77 0L808.27 0 808.27-36.5 811.77-36.5 811.77 0ZM838.67 0L832.42 0Q828.32 0 825.09-1.53 821.87-3.05 819.99-5.9 818.12-8.75 818.12-12.75L818.12-12.75Q818.12-16.45 819.62-19.48 821.12-22.5 823.84-24.3 826.57-26.1 830.22-26.1L830.22-26.1Q833.97-26.1 836.57-24.45 839.17-22.8 840.52-20 841.87-17.2 841.87-13.7L841.87-13.7Q841.87-13.2 841.82-12.6 841.77-12 841.67-11.55L841.67-11.55 821.82-11.55Q821.97-8.75 823.42-6.85 824.87-4.95 827.19-4 829.52-3.05 832.22-3.05L832.22-3.05 838.67-3.05 838.67 0ZM821.82-14.05L821.82-14.05 838.32-14.05Q838.32-15.05 838.12-16.28 837.92-17.5 837.39-18.7 836.87-19.9 835.94-20.9 835.02-21.9 833.59-22.53 832.17-23.15 830.12-23.15L830.12-23.15Q828.22-23.15 826.67-22.35 825.12-21.55 824.07-20.23 823.02-18.9 822.44-17.3 821.87-15.7 821.82-14.05Z" opacity="1" transform="matrix(1,0,0,1,0,0)" fill="#ffffff" class="undefined-text-1" data-fill-palette-color="secondary" id="text-1"></path></svg></g></svg></g></svg></g></svg></g></svg></g></svg></g></svg></g></svg></g><defs></defs></svg><rect width="395.52" height="247.2" fill="none" stroke="none" visibility="hidden"></rect></g></svg></g></svg>